<?xml version="1.0" encoding="utf-8"?>
<!-- Generator: Adobe Illustrator 15.0.2, SVG Export Plug-In . SVG Version: 6.00 Build 0)  -->
<!DOCTYPE svg PUBLIC "-//W3C//DTD SVG 1.1//EN" "http://www.w3.org/Graphics/SVG/1.1/DTD/svg11.dtd">
<svg version="1.1" id="Layer_1" xmlns="http://www.w3.org/2000/svg" xmlns:xlink="http://www.w3.org/1999/xlink" x="0px" y="0px"
	 width="283.75px" height="48.5px" viewBox="0 0 283.75 48.5" enable-background="new 0 0 283.75 48.5" xml:space="preserve">
<g>
	<path fill="#FFFFFF" d="M27.9,34.473c0-2.373-0.871-4.269-2.611-5.689c-1.741-1.42-4.758-2.719-9.053-3.897
		c-4.312-1.16-7.469-2.48-9.469-3.961c-2-1.48-3-3.641-3-6.481c0-2.823,1.178-5.074,3.533-6.754c2.355-1.68,5.36-2.52,9.014-2.52
		c3.689,0,6.703,1.03,9.041,3.091s3.472,4.711,3.403,7.949l-0.052,0.156h-1.195c0-2.823-1.039-5.161-3.118-7.014
		c-2.078-1.853-4.771-2.779-8.079-2.779c-3.429,0-6.144,0.766-8.144,2.299c-2,1.533-3,3.373-3,5.521s0.827,3.931,2.481,5.351
		c1.654,1.42,4.646,2.685,8.976,3.793c4.191,1.108,7.355,2.464,9.495,4.065c2.139,1.602,3.208,3.875,3.208,6.819
		c0,2.996-1.221,5.356-3.663,7.079s-5.499,2.584-9.17,2.584c-3.793,0-7.058-0.887-9.794-2.663c-2.736-1.775-4.062-4.568-3.975-8.378
		l0.052-0.156h1.169c0,3.429,1.264,5.919,3.792,7.469s5.447,2.325,8.755,2.325c3.325,0,6.057-0.762,8.196-2.286
		C26.831,38.872,27.9,36.897,27.9,34.473z"/>
	<path fill="#FFFFFF" d="M56.892,25.069h-5.793v18.47h-1.402V5.715h1.402v17.977h6.183L73.335,5.715h1.663l0.052,0.13l-16.6,18.73
		l17.795,18.808l-0.078,0.156H74.53L56.892,25.069z"/>
	<path fill="#FFFFFF" d="M106.146,26.731l0.675,1.299l0.702-1.299L120.07,5.715h1.714l-14.21,23.458v14.366h-1.429V29.173
		L91.936,5.715h1.715L106.146,26.731z"/>
	<path fill="#FFFFFF" d="M141.969,25.796v17.769h-1.402V5.741h12.054c3.983,0,7.048,0.862,9.196,2.585s3.221,4.239,3.221,7.546
		c0,2.13-0.68,4.065-2.039,5.806c-1.36,1.741-3.217,2.871-5.572,3.39c2.719,0.468,4.667,1.464,5.845,2.987
		c1.177,1.524,1.766,3.473,1.766,5.845v3.559c0,1.178,0.143,2.234,0.429,3.169c0.286,0.936,0.757,1.698,1.416,2.286v0.649h-1.377
		c-0.624-0.71-1.091-1.588-1.403-2.637c-0.312-1.047-0.467-2.221-0.467-3.52v-3.455c0-2.563-0.879-4.563-2.637-6.001
		c-1.758-1.437-4.265-2.156-7.521-2.156H141.969z M141.969,24.394h10.392c3.861,0,6.706-0.814,8.534-2.442
		c1.827-1.628,2.741-3.654,2.741-6.079c0-2.823-0.922-4.983-2.767-6.481c-1.844-1.498-4.594-2.247-8.248-2.247h-10.651V24.394z"/>
	<path fill="#FFFFFF" d="M190.678,43.539h-1.403V5.715h1.403V43.539z"/>
	<path fill="#FFFFFF" d="M237.542,34.473c0-2.373-0.87-4.269-2.611-5.689c-1.74-1.42-4.758-2.719-9.053-3.897
		c-4.312-1.16-7.469-2.48-9.469-3.961c-2.001-1.48-3.001-3.641-3.001-6.481c0-2.823,1.178-5.074,3.533-6.754
		c2.355-1.68,5.36-2.52,9.015-2.52c3.688,0,6.702,1.03,9.04,3.091s3.472,4.711,3.403,7.949l-0.053,0.156h-1.194
		c0-2.823-1.039-5.161-3.117-7.014c-2.078-1.853-4.771-2.779-8.079-2.779c-3.43,0-6.145,0.766-8.145,2.299s-3,3.373-3,5.521
		s0.826,3.931,2.48,5.351c1.653,1.42,4.646,2.685,8.976,3.793c4.19,1.108,7.355,2.464,9.495,4.065
		c2.139,1.602,3.208,3.875,3.208,6.819c0,2.996-1.221,5.356-3.663,7.079c-2.441,1.723-5.499,2.584-9.17,2.584
		c-3.793,0-7.058-0.887-9.794-2.663c-2.736-1.775-4.062-4.568-3.975-8.378l0.052-0.156h1.169c0,3.429,1.265,5.919,3.793,7.469
		s5.446,2.325,8.755,2.325c3.325,0,6.057-0.762,8.196-2.286C236.473,38.872,237.542,36.897,237.542,34.473z"/>
	<path fill="#FFFFFF" d="M279.704,24.523H260.74v17.613h21.613v1.403h-23.017V5.715h23.017v1.403H260.74v16.002h18.964V24.523z"/>
</g>
</svg>
